<svg id="66b6d8cf-2f1b-4aea-abf3-8b4dbe5fa68c" data-name="Слой 1" xmlns="http://www.w3.org/2000/svg" viewBox="0 0 1151.62 784.75"><defs><style>.\32 dd32d27-068c-446e-9497-23dd337f9e31{fill:#4b4b4b;}.\37 da56295-ba70-4b33-9d0b-a362fa7585e0{fill:#896846;}.b975c583-1de5-474a-9e35-668513a113f6{fill:#a6b574;}.\37 98d72e4-6c25-4cda-b56e-78c850d847dc{fill:#cad88f;}.\31 54c34a9-a6b6-42ea-82f6-2664b7f97781{fill:#585e33;}</style></defs><title>logo</title><line class="2dd32d27-068c-446e-9497-23dd337f9e31" x1="148.61" y1="601.31" x2="10.01" y2="462.72"/><path class="2dd32d27-068c-446e-9497-23dd337f9e31" d="M579.37,1133.23l-46.69-46.69-74.82-74.82-10.22-10.22q19.92-19.9,39.82-39.82l74.82-74.82,17.09-17.09c9.11-9.11-5-23.25-14.14-14.14l-46.69,46.69-74.82,74.82-17.09,17.09a10.51,10.51,0,0,0,0,14.54l46.69,46.69,74.82,74.82,17.09,17.09C574.34,1156.48,588.48,1142.34,579.37,1133.23Z" transform="translate(-423.69 -538.99)"/><line class="2dd32d27-068c-446e-9497-23dd337f9e31" x1="1003.01" y1="601.31" x2="1141.61" y2="462.72"/><path class="2dd32d27-068c-446e-9497-23dd337f9e31" d="M1572.37,994.23l-46.69-46.69-74.82-74.82q-8.53-8.55-17.09-17.09c-9.11-9.11-23.25,5-14.14,14.14l46.69,46.69,74.82,74.82,10.22,10.22-39.82,39.82-74.82,74.82q-8.55,8.53-17.09,17.09c-9.11,9.11,5,23.25,14.14,14.14l46.69-46.69,74.82-74.82,17.09-17.09a10.51,10.51,0,0,0,0-14.54Z" transform="translate(-423.69 -538.99)"/><line class="2dd32d27-068c-446e-9497-23dd337f9e31" x1="1141.31" y1="159.81" x2="1072.01" y2="90.51"/><path class="2dd32d27-068c-446e-9497-23dd337f9e31" d="M1572.07,680.73q-30.24-30.26-60.5-60.5l-1.83-1.83,53.53-53.53,8.8-8.8c9.11-9.11-5-23.26-14.14-14.14l-60.5,60.5-1.83,1.83q-26.5-26.52-53-53l-8.8-8.8c-9.11-9.11-23.25,5-14.14,14.14l60.5,60.5,1.83,1.83-53.53,53.53-8.8,8.8c-9.11,9.11,5,23.25,14.14,14.14l60.5-60.5,1.83-1.83,53,53,8.8,8.8C1567,704,1581.19,689.84,1572.07,680.73Z" transform="translate(-423.69 -538.99)"/><path class="7da56295-ba70-4b33-9d0b-a362fa7585e0" d="M1276,999.5c0,7.93-.31,15.85-.92,23.75q-.43,5.51-1.07,11c-.1.91-.22,1.82-.33,2.73-.46,4,.28-2,.33-2.29-.37,2.25-.66,4.52-1,6.77a299.79,299.79,0,0,1-10.78,44.61c-2.34,7.19-5,14.25-7.82,21.26-.57,1.43-2,3.93.88-2.06-.37.8-.7,1.63-1,2.44-.71,1.61-1.43,3.23-2.17,4.83q-2.47,5.42-5.17,10.71a300.81,300.81,0,0,1-22.75,37.67c-2.14,3-4.5,5.92-6.6,9,.15-.22,3.75-4.76,1.34-1.76l-1.62,2.06q-1.85,2.3-3.73,4.55-7.11,8.55-14.84,16.55t-16,15.4q-3.9,3.48-7.93,6.83c-1.34,1.12-2.69,2.22-4,3.32l-2.57,2c-3.19,2.56,3.59-2.68,1.24-.94a330.43,330.43,0,0,1-36.8,24q-9.83,5.43-20,10.11c-1.6.74-3.22,1.46-4.83,2.17-.81.35-1.64.68-2.44,1,6-2.83,3.49-1.45,2.06-.88-3.7,1.49-7.41,3-11.16,4.33a297,297,0,0,1-44,12.33q-5.34,1.07-10.72,1.94c-1.8.29-3.61.55-5.41.82-4,.61,2-.27,2.3-.3-1.37.14-2.73.34-4.1.5q-11.71,1.35-23.52,1.78a303.29,303.29,0,0,1-47.35-1.94c-.91-.11-1.82-.25-2.73-.34.28,0,6.29.91,2.3.3-1.8-.27-3.61-.53-5.41-.82q-6-1-12-2.2-10.92-2.24-21.65-5.27-11-3.11-21.63-7c-3.54-1.3-7-2.69-10.54-4.1-1.43-.57-3.93-2,2.06.88-.8-.37-1.63-.7-2.44-1q-2.73-1.2-5.43-2.44a300.4,300.4,0,0,1-39.12-21.73c-6-4-11.73-8.37-17.63-12.52,6.27,4.41.63.46-.81-.69s-2.7-2.2-4-3.32q-4.28-3.55-8.41-7.27a301.32,301.32,0,0,1-30.79-32c-1.11-1.34-2.22-2.69-3.31-4l-1.62-2.06c-2.41-3,1.19,1.54,1.34,1.76-2.22-3.23-4.72-6.29-7-9.5q-6.43-9.12-12.18-18.7t-10.79-19.62q-2.37-4.72-4.57-9.53c-.74-1.6-1.46-3.22-2.17-4.83-.35-.81-.68-1.64-1-2.44,3.15,6.68,1,2.31.38.83a297.59,297.59,0,0,1-13.85-43.33q-2.6-10.9-4.36-22c-.32-2-.57-4.07-.91-6.09,0,.28.79,6.31.33,2.29-.11-.91-.23-1.82-.33-2.73q-.68-5.84-1.12-11.69a305,305,0,0,1,.11-47.5q.45-5.5,1.09-11l.33-2.73c.37-3.11-.77,5.4-.31,2.3.33-2.25.66-4.51,1-6.76q1.82-11.05,4.45-22a317.06,317.06,0,0,1,14-43.24c1.45-3.63-.76,1.81-.88,2.06.38-.79.7-1.63,1-2.44.71-1.61,1.43-3.23,2.17-4.83q2.47-5.41,5.17-10.71,5.07-10,10.87-19.57t12.26-18.64c2-2.84,4.21-5.58,6.22-8.43-4.26,6-.89,1.17.28-.3q2.06-2.55,4.15-5.06a302.14,302.14,0,0,1,30.92-31.87q3.91-3.48,7.94-6.82c1.34-1.11,2.69-2.22,4-3.31l2.06-1.62c3.82-3.06-4.64,3.47-.72.55,6-4.44,12-8.76,18.24-12.8a299.76,299.76,0,0,1,38.67-21.21c1.61-.73,3.23-1.44,4.84-2.15.89-.4,3.77-1.62.19-.1-4,1.71.14,0,.81-.31q5.24-2.13,10.56-4.06,10.69-3.88,21.67-6.93t22.35-5.31q5.35-1,10.74-1.91c1.8-.28,3.61-.54,5.41-.81,3.1-.46-5.41.68-2.3.31l3.42-.41a303.62,303.62,0,0,1,47.38-1.73q11.77.5,23.49,1.89c.9.11,1.82.26,2.73.34-6.78-.56-3.89-.54-2.3-.3,1.8.26,3.61.53,5.41.82q6,1,12,2.2a298.78,298.78,0,0,1,43.91,12.53c3.33,1.23,6.62,2.55,9.91,3.87,3.63,1.45-1.81-.76-2.06-.88.79.38,1.63.7,2.44,1q3,1.32,6,2.72,10.18,4.72,20,10.2t19.09,11.61q4.38,2.9,8.65,5.94c1.42,1,2.84,2,4.24,3.07.89.66,6.11,4.64,2.8,2.08-3.47-2.68,1.84,1.48,2.7,2.17q2,1.65,4,3.33,4.26,3.55,8.39,7.29,8.25,7.44,15.95,15.47t14.77,16.6c1.11,1.35,2.21,2.7,3.29,4.07.55.68,1.08,1.37,1.63,2,1.87,2.33-3.13-4.15-1.35-1.75,2.34,3.16,4.7,6.3,7,9.52a301,301,0,0,1,22.59,37.78q2.52,5,4.85,10.13c.73,1.61,1.44,3.23,2.15,4.84.4.89,1.62,3.77.1.19-1.63-3.85,0-.07.31.81q4.27,10.5,7.73,21.31a300.1,300.1,0,0,1,10.59,44.68c.28,1.8.48,3.63.8,5.42-1.35-7.66-.22-1.51,0,.44q.63,5.49,1.07,11c.61,7.9.9,15.82.92,23.75,0,12.55,11,24.58,24,24s24-10.55,24-24c-.15-66.31-20.52-132.68-59.18-186.72a330.82,330.82,0,0,0-155.27-118.56c-63.17-23.22-134.47-25.31-199.12-6.84-62.07,17.73-119.11,54.53-160.14,104.45a329,329,0,0,0-74.37,183.92c-5.18,66.34,11.17,134.4,45.63,191.3,33.39,55.14,83.62,100.75,142.49,127.27a330.49,330.49,0,0,0,201.57,22.89c63.76-12.86,123.52-46.37,168.37-93.4s75.89-107.87,85.72-172.29a350,350,0,0,0,4.3-52c0-12.55-11.06-24.58-24-24S1276,986,1276,999.5Z" transform="translate(-423.69 -538.99)"/><path class="b975c583-1de5-474a-9e35-668513a113f6" d="M1000,699.5C834,699.5,699.5,834,699.5,1000S834,1300.5,1000,1300.5,1300.5,1166,1300.5,1000,1166,699.5,1000,699.5Zm71.43,198.37a11.15,11.15,0,0,1-1.94,7.34c-2.07,3.43-5,5.06-8.39,6.95-4.69,2.58-7.21,4-8.64,3-3-2.13,2-12.73,5.18-19.59a8.06,8.06,0,0,1,3.74-4.25,7.09,7.09,0,0,1,6.44.4C1070.85,893.46,1071.3,896.89,1071.43,897.87ZM1005.77,869a7.07,7.07,0,0,1,5.82-2.79c3.51.08,5.57,2.86,6.16,3.65a11.16,11.16,0,0,1,1.88,7.36c-.13,4-1.86,6.83-3.94,10.15-2.85,4.54-4.37,7-6.11,6.79-3.69-.38-4.49-12.07-5-19.63A8.1,8.1,0,0,1,1005.77,869ZM946.65,888.9a7.1,7.1,0,0,1,4-5c3.2-1.45,6.27.15,7.14.61a11.08,11.08,0,0,1,4.89,5.81c1.63,3.66,1.3,7,.88,10.86-.59,5.31-.9,8.17-2.55,8.76-3.48,1.27-9.3-8.91-13.06-15.49A8.05,8.05,0,0,1,946.65,888.9Zm-11.33,228.74c-.9.38-4.1,1.72-7.16,0a7.07,7.07,0,0,1-3.58-5.37,8.07,8.07,0,0,1,1.79-5.37c4.3-6.23,11-15.88,14.32-14.33,1.59.74,1.66,3.61,1.79,9,.1,3.92.14,7.23-1.79,10.74A11.11,11.11,0,0,1,935.32,1117.64Zm53.88,4.57a11.1,11.1,0,0,1-3.81,6.57c-.78.6-3.52,2.71-6.93,1.83a7.09,7.09,0,0,1-4.84-4.27,8.08,8.08,0,0,1,.36-5.65c2.56-7.13,6.52-18.16,10.17-17.52,1.73.3,2.53,3.06,4,8.19C989.28,1115.13,990.17,1118.32,989.2,1122.21Zm51.73-6.78c-.43.88-1.94,4-5.38,4.73a7.09,7.09,0,0,1-6.24-1.67,8.09,8.09,0,0,1-2.2-5.22c-.89-7.52-2.26-19.16,1.3-20.22,1.67-.49,3.62,1.62,7.25,5.55,2.67,2.88,4.89,5.34,5.75,9.25A11.1,11.1,0,0,1,1040.93,1115.43Zm17.59-100a4.58,4.58,0,0,0-4.61,3.22l0,.1a4.52,4.52,0,0,0,1.59,4.94l102.34,77.71-103.64-62.7a9.94,9.94,0,0,0-12.61,2c-.06.06-.11.13-.17.2a9.72,9.72,0,0,0-.69,12l70,100.63-79.78-92.27a12.58,12.58,0,0,0-13.85-3.58l-.46.17a13.06,13.06,0,0,0-8.58,12.37l.88,119.3s-10.37-91.56-13.54-119.51a10.53,10.53,0,0,0-8.88-9.22l-.25,0a10,10,0,0,0-11.1,6.9l-36,113.84s21.37-104.92,25.42-124.85a4.88,4.88,0,0,0-2.12-5.06l-.09-.06a4.88,4.88,0,0,0-6.06.59L865,1140.7l80.06-96a8,8,0,0,0,.45-9.7l-.14-.2a8.11,8.11,0,0,0-9.54-3l-118.59,44.37,113.58-56.75a8.91,8.91,0,0,0,4.8-9.31l0-.2a9,9,0,0,0-8.37-7.58l-115.84-6.18L929.9,989.9a7.87,7.87,0,0,0,7.18-5.78l0-.14a7.37,7.37,0,0,0-3.46-8.4L825.16,914l114,49.63a8.63,8.63,0,0,0,10-2.25l.46-.53a8.89,8.89,0,0,0,1.19-10.29L891.85,845.17l66.48,94.51A12.33,12.33,0,0,0,973,944l.28-.11a13,13,0,0,0,8.16-13L973,813l19.89,117.1a12.22,12.22,0,0,0,10.63,10.07l.19,0a12.16,12.16,0,0,0,12.45-6.92l50.82-108s-31.81,91.56-40.18,115.63a8,8,0,0,0,3,9.19l.37.26a8.3,8.3,0,0,0,9.84-.32l91.47-72.22-82,80.08a9.35,9.35,0,0,0-1.5,11.49l.11.19a9.19,9.19,0,0,0,10.23,4.19l121.51-31.94-120.06,45.53a5.2,5.2,0,0,0-3.36,5.52,34.63,34.63,0,0,1,.15,4.1h0a5.28,5.28,0,0,0,4.47,5.22l125.52,19.67Zm54.67,25.34c-1.1,3.34-4.35,4.5-5.28,4.84a11.17,11.17,0,0,1-7.59-.33c-3.79-1.29-6-3.76-8.58-6.71-3.51-4-5.4-6.2-4.73-7.81,1.43-3.42,12.86-.81,20.24.88a8,8,0,0,1,5,2.75A7.09,7.09,0,0,1,1113.19,1040.81Zm-20.5,44.59c-1.82,3-5.26,3.42-6.23,3.54a11.22,11.22,0,0,1-7.33-2c-3.4-2.1-5-5-6.86-8.46-2.52-4.72-3.88-7.25-2.86-8.67,2.16-3,12.71,2.09,19.53,5.38a8.13,8.13,0,0,1,4.21,3.79A7.13,7.13,0,0,1,1092.69,1085.4Zm-213.41-14.87a8,8,0,0,1,4.66-3.22c7.18-2.4,18.3-6.12,20-2.86.83,1.54-.84,3.88-3.94,8.24-2.28,3.19-4.24,5.87-7.89,7.51a11.07,11.07,0,0,1-7.52,1.07c-.95-.24-4.31-1.08-5.72-4.3A7.07,7.07,0,0,1,879.28,1070.53Zm-9.6-54.06a8.13,8.13,0,0,1,5.36-1.84c7.56-.36,19.27-.92,20.08,2.7.38,1.7-1.86,3.5-6,6.85-3.06,2.46-5.67,4.5-9.63,5.1a11.12,11.12,0,0,1-7.53-1c-.85-.49-3.85-2.21-4.35-5.69A7.12,7.12,0,0,1,869.68,1016.47Zm-.15-48.89a7.12,7.12,0,0,1,4.56-4.57,8.1,8.1,0,0,1,5.62.7c7,3,17.72,7.63,16.86,11.23-.41,1.7-3.21,2.34-8.43,3.52-3.83.86-7.07,1.55-10.88.35a11.18,11.18,0,0,1-6.33-4.21C870.38,973.79,868.44,970.92,869.53,967.58Zm25.29-54.79c2.3-2.65,5.76-2.47,6.74-2.42a11.17,11.17,0,0,1,6.87,3.25c3,2.65,4.08,5.78,5.31,9.51,1.68,5.08,2.58,7.81,1.34,9-2.65,2.6-12.17-4.23-18.32-8.65a8.07,8.07,0,0,1-3.5-4.45A7.11,7.11,0,0,1,894.82,912.79ZM1104.22,939a11.11,11.11,0,0,1-3.77,6.6c-2.88,2.78-6.08,3.61-9.89,4.55-5.2,1.28-8,2-9.11.62-2.39-2.83,5.17-11.79,10-17.58a8.14,8.14,0,0,1,4.72-3.14,7.09,7.09,0,0,1,6.12,2C1104.81,934.57,1104.35,938,1104.22,939Zm14.12,54.28a11.14,11.14,0,0,1-6.55,3.85c-3.88,1-7.08.11-10.85-1-5.14-1.48-7.9-2.27-8.21-4-.66-3.65,10.35-7.66,17.47-10.26a8.06,8.06,0,0,1,5.65-.38,7.11,7.11,0,0,1,4.29,4.82C1121,989.72,1118.94,992.47,1118.34,993.25Z" transform="translate(-423.69 -538.99)"/><path class="798d72e4-6c25-4cda-b56e-78c850d847dc" d="M1061.13,1002.21a5.28,5.28,0,0,1-4.47-5.22h0a34.63,34.63,0,0,0-.15-4.1,5.2,5.2,0,0,1,3.36-5.52l120.06-45.53-121.51,31.94a9.19,9.19,0,0,1-10.23-4.19l-.11-.19a9.35,9.35,0,0,1,1.5-11.49l82-80.08L1040.08,950a8.3,8.3,0,0,1-9.84.32l-.37-.26a8,8,0,0,1-3-9.19c8.37-24.07,40.18-115.63,40.18-115.63l-50.82,108a12.16,12.16,0,0,1-12.45,6.92l-.19,0a12.22,12.22,0,0,1-10.63-10.07L973,813l8.42,117.87a13,13,0,0,1-8.16,13L973,944a12.33,12.33,0,0,1-14.69-4.35l-66.48-94.51,58.92,105.42a8.89,8.89,0,0,1-1.19,10.29l-.46.53a8.63,8.63,0,0,1-10,2.25L825.16,914l108.5,61.55a7.37,7.37,0,0,1,3.46,8.4l0,.14a7.87,7.87,0,0,1-7.18,5.78l-118.58,6.19,115.84,6.18a9,9,0,0,1,8.37,7.58l0,.2a8.91,8.91,0,0,1-4.8,9.31l-113.58,56.75,118.59-44.37a8.11,8.11,0,0,1,9.54,3l.14.2a8,8,0,0,1-.45,9.7l-80.06,96,91.31-88.61a4.88,4.88,0,0,1,6.06-.59l.09.06a4.88,4.88,0,0,1,2.12,5.06c-4,19.93-25.42,124.85-25.42,124.85l36-113.84a10,10,0,0,1,11.1-6.9l.25,0a10.53,10.53,0,0,1,8.88,9.22c3.17,28,13.54,119.51,13.54,119.51l-.88-119.3a13.06,13.06,0,0,1,8.58-12.37l.46-.17a12.58,12.58,0,0,1,13.85,3.58l79.78,92.27-70-100.63a9.72,9.72,0,0,1,.69-12c.06-.07.11-.14.17-.2a9.94,9.94,0,0,1,12.61-2l103.64,62.7-102.34-77.71a4.52,4.52,0,0,1-1.59-4.94l0-.1a4.58,4.58,0,0,1,4.61-3.22l128.13,6.41Z" transform="translate(-423.69 -538.99)"/><path class="154c34a9-a6b6-42ea-82f6-2664b7f97781" d="M942.48,1101.53c-.13-5.35-.2-8.22-1.79-9-3.36-1.55-10,8.1-14.32,14.33a8.07,8.07,0,0,0-1.79,5.37,7.07,7.07,0,0,0,3.58,5.37c3.06,1.72,6.26.38,7.16,0a11.11,11.11,0,0,0,5.37-5.37C942.62,1108.76,942.58,1105.45,942.48,1101.53Z" transform="translate(-423.69 -538.99)"/><path class="154c34a9-a6b6-42ea-82f6-2664b7f97781" d="M984.15,1103.17c-3.65-.64-7.61,10.39-10.17,17.52a8.08,8.08,0,0,0-.36,5.65,7.09,7.09,0,0,0,4.84,4.27c3.41.88,6.15-1.23,6.93-1.83a11.1,11.1,0,0,0,3.81-6.57c1-3.89.08-7.08-1-10.85C986.68,1106.23,985.88,1103.47,984.15,1103.17Z" transform="translate(-423.69 -538.99)"/><path class="154c34a9-a6b6-42ea-82f6-2664b7f97781" d="M1035.66,1098.6c-3.63-3.93-5.58-6-7.25-5.55-3.56,1.06-2.19,12.7-1.3,20.22a8.09,8.09,0,0,0,2.2,5.22,7.09,7.09,0,0,0,6.24,1.67c3.44-.73,5-3.85,5.38-4.73a11.1,11.1,0,0,0,.48-7.58C1040.55,1103.94,1038.33,1101.48,1035.66,1098.6Z" transform="translate(-423.69 -538.99)"/><path class="154c34a9-a6b6-42ea-82f6-2664b7f97781" d="M884.64,1081.27a11.07,11.07,0,0,0,7.52-1.07c3.65-1.64,5.61-4.32,7.89-7.51,3.1-4.36,4.77-6.7,3.94-8.24-1.75-3.26-12.87.46-20,2.86a8,8,0,0,0-4.66,3.22,7.07,7.07,0,0,0-.36,6.44C880.33,1080.19,883.69,1081,884.64,1081.27Z" transform="translate(-423.69 -538.99)"/><path class="154c34a9-a6b6-42ea-82f6-2664b7f97781" d="M871.93,1028.27a11.12,11.12,0,0,0,7.53,1c4-.6,6.57-2.64,9.63-5.1,4.17-3.35,6.41-5.15,6-6.85-.81-3.62-12.52-3.06-20.08-2.7a8.13,8.13,0,0,0-5.36,1.84,7.12,7.12,0,0,0-2.1,6.11C868.08,1026.06,871.08,1027.78,871.93,1028.27Z" transform="translate(-423.69 -538.99)"/><path class="154c34a9-a6b6-42ea-82f6-2664b7f97781" d="M877.26,978.81c3.81,1.2,7,.51,10.88-.35,5.22-1.18,8-1.82,8.43-3.52.86-3.6-9.9-8.24-16.86-11.23a8.1,8.1,0,0,0-5.62-.7,7.12,7.12,0,0,0-4.56,4.57c-1.09,3.34.85,6.21,1.4,7A11.18,11.18,0,0,0,877.26,978.81Z" transform="translate(-423.69 -538.99)"/><path class="154c34a9-a6b6-42ea-82f6-2664b7f97781" d="M896.76,923.51c6.15,4.42,15.67,11.25,18.32,8.65,1.24-1.22.34-3.95-1.34-9-1.23-3.73-2.31-6.86-5.31-9.51a11.17,11.17,0,0,0-6.87-3.25c-1,0-4.44-.23-6.74,2.42a7.11,7.11,0,0,0-1.56,6.27A8.07,8.07,0,0,0,896.76,923.51Z" transform="translate(-423.69 -538.99)"/><path class="154c34a9-a6b6-42ea-82f6-2664b7f97781" d="M961,909.89c1.65-.59,2-3.45,2.55-8.76.42-3.91.75-7.2-.88-10.86a11.08,11.08,0,0,0-4.89-5.81c-.87-.46-3.94-2.06-7.14-.61a7.1,7.1,0,0,0-4,5,8.05,8.05,0,0,0,1.32,5.5C951.73,901,957.55,911.16,961,909.89Z" transform="translate(-423.69 -538.99)"/><path class="154c34a9-a6b6-42ea-82f6-2664b7f97781" d="M1009.58,894.18c1.74.18,3.26-2.25,6.11-6.79,2.08-3.32,3.81-6.15,3.94-10.15a11.16,11.16,0,0,0-1.88-7.36c-.59-.79-2.65-3.57-6.16-3.65a7.07,7.07,0,0,0-5.82,2.79,8.1,8.1,0,0,0-1.21,5.53C1005.09,882.11,1005.89,893.8,1009.58,894.18Z" transform="translate(-423.69 -538.99)"/><path class="154c34a9-a6b6-42ea-82f6-2664b7f97781" d="M1061.38,891.28a8.06,8.06,0,0,0-3.74,4.25c-3.23,6.86-8.22,17.46-5.18,19.59,1.43,1,4-.38,8.64-3,3.44-1.89,6.32-3.52,8.39-6.95a11.15,11.15,0,0,0,1.94-7.34c-.13-1-.58-4.41-3.61-6.19A7.09,7.09,0,0,0,1061.38,891.28Z" transform="translate(-423.69 -538.99)"/><path class="154c34a9-a6b6-42ea-82f6-2664b7f97781" d="M1096.22,930a8.14,8.14,0,0,0-4.72,3.14c-4.88,5.79-12.44,14.75-10,17.58,1.12,1.34,3.91.66,9.11-.62,3.81-.94,7-1.77,9.89-4.55a11.11,11.11,0,0,0,3.77-6.6c.13-1,.59-4.4-1.88-6.91A7.09,7.09,0,0,0,1096.22,930Z" transform="translate(-423.69 -538.99)"/><path class="154c34a9-a6b6-42ea-82f6-2664b7f97781" d="M1115.85,981.5a8.06,8.06,0,0,0-5.65.38c-7.12,2.6-18.13,6.61-17.47,10.26.31,1.72,3.07,2.51,8.21,4,3.77,1.08,7,2,10.85,1a11.14,11.14,0,0,0,6.55-3.85c.6-.78,2.7-3.53,1.8-6.93A7.11,7.11,0,0,0,1115.85,981.5Z" transform="translate(-423.69 -538.99)"/><path class="154c34a9-a6b6-42ea-82f6-2664b7f97781" d="M1107.25,1031.68c-7.38-1.69-18.81-4.3-20.24-.88-.67,1.61,1.22,3.77,4.73,7.81,2.58,3,4.79,5.42,8.58,6.71a11.17,11.17,0,0,0,7.59.33c.93-.34,4.18-1.5,5.28-4.84a7.09,7.09,0,0,0-1-6.38A8,8,0,0,0,1107.25,1031.68Z" transform="translate(-423.69 -538.99)"/><path class="154c34a9-a6b6-42ea-82f6-2664b7f97781" d="M1088.94,1075.17c-6.82-3.29-17.37-8.4-19.53-5.38-1,1.42.34,4,2.86,8.67,1.85,3.46,3.46,6.36,6.86,8.46a11.22,11.22,0,0,0,7.33,2c1-.12,4.41-.53,6.23-3.54a7.13,7.13,0,0,0,.46-6.44A8.13,8.13,0,0,0,1088.94,1075.17Z" transform="translate(-423.69 -538.99)"/></svg>